<svg id="Ebene_1" data-name="Ebene 1" xmlns="http://www.w3.org/2000/svg" viewBox="0 0 404.63 64.57"><defs><style>.cls-1{fill: currentColor;}</style></defs><path class="cls-1" d="M403.82,17.38A23.07,23.07,0,0,0,401,10.87a22.42,22.42,0,0,0-9.36-8.27,27.35,27.35,0,0,0-12-2.6H43.79C36,0,27.56,2.83,20,8A48.89,48.89,0,0,0,3.28,27.05,32.57,32.57,0,0,0,0,40.33a25.14,25.14,0,0,0,.81,6.86,23.13,23.13,0,0,0,2.82,6.52A22.47,22.47,0,0,0,13,62a27.46,27.46,0,0,0,12,2.6H360.83c7.79,0,16.24-2.84,23.81-8a48.8,48.8,0,0,0,16.71-19.06,32.43,32.43,0,0,0,3.27-13.28A25.53,25.53,0,0,0,403.82,17.38Z"/></svg>