<svg data-name="Ebene 1" xmlns="http://www.w3.org/2000/svg" viewBox="0 0 50.78 46.57"><path d="M50.27 10.64a14.09 14.09 0 0 0-1.72-4 13.47 13.47 0 0 0-5.67-5A18.32 18.32 0 0 0 34.79 0c-6 0-12.65 2.28-18.74 6.43A39.77 39.77 0 0 0 2.42 21.86 23.58 23.58 0 0 0 0 31.46a16.86 16.86 0 0 0 .51 4.43 14 14 0 0 0 1.72 4 13.56 13.56 0 0 0 5.67 5 18.49 18.49 0 0 0 8.1 1.66c6 0 12.65-2.28 18.74-6.43a39.77 39.77 0 0 0 13.62-15.45 23.58 23.58 0 0 0 2.42-9.6 16.91 16.91 0 0 0-.51-4.43Zm-46 20.89a19.42 19.42 0 0 1 2-7.86A35.45 35.45 0 0 1 18.44 9.92c5.39-3.67 11.2-5.69 16.35-5.69A14.35 14.35 0 0 1 41 5.51 9.41 9.41 0 0 1 45 9a9.61 9.61 0 0 1 1.19 2.76 12.12 12.12 0 0 1 .34 3.24 19.42 19.42 0 0 1-2 7.86 35.37 35.37 0 0 1-12.19 13.75C27 40.28 21.14 42.3 16 42.3A14.35 14.35 0 0 1 9.74 41a9.41 9.41 0 0 1-3.93-3.44 10.2 10.2 0 0 1-1.19-2.76 12.12 12.12 0 0 1-.37-3.27Z"/><path d="m15.8 19.34 5.58 8.36 13.88-8.39 8.01-.02-23.66 14.77-9.42-14.71 5.61-.01z"/></svg>