<svg id="Ebene_1" data-name="Ebene 1" xmlns="http://www.w3.org/2000/svg" viewBox="0 0 26.21 24.06"><defs><style>.cls-1{fill:#61bdcc;}</style></defs><path class="cls-1" d="M26,5.5a7.31,7.31,0,0,0-.89-2A7,7,0,0,0,22.13.88,9.61,9.61,0,0,0,18,0,17.74,17.74,0,0,0,8.27,3.32a20.45,20.45,0,0,0-7,8,12,12,0,0,0-1.25,5,8.17,8.17,0,0,0,.26,2.29,7.24,7.24,0,0,0,.89,2.05,7,7,0,0,0,2.93,2.58,9.61,9.61,0,0,0,4.18.88,17.74,17.74,0,0,0,9.68-3.32,20.47,20.47,0,0,0,7-8A12.23,12.23,0,0,0,26.21,7.8,8.68,8.68,0,0,0,26,5.5"/></svg>